<?xml version="1.0" standalone="no"?>
<!DOCTYPE svg PUBLIC "-//W3C//DTD SVG 20010904//EN"
 "http://www.w3.org/TR/2001/REC-SVG-20010904/DTD/svg10.dtd">
<svg version="1.0" xmlns="http://www.w3.org/2000/svg"
 width="512.000000pt" height="512.000000pt" viewBox="0 0 512.000000 512.000000"
 preserveAspectRatio="xMidYMid meet">

<g transform="translate(0.000000,512.000000) scale(0.100000,-0.100000)"
fill="#000000" stroke="none">
<path d="M2355 4649 c-797 -76 -1485 -605 -1760 -1354 -19 -49 -37 -89 -42
-89 -4 1 -91 21 -192 43 -101 23 -186 41 -191 39 -4 -2 72 -261 169 -576 96
-315 178 -571 182 -570 11 5 822 879 818 882 -2 2 -87 22 -188 45 -102 23
-186 43 -188 45 -7 7 81 206 129 289 77 135 160 241 282 362 121 119 225 198
363 276 177 99 413 175 625 199 142 17 390 8 522 -19 372 -76 727 -284 961
-563 84 -99 174 -232 215 -316 14 -28 29 -51 33 -52 7 0 346 159 357 167 8 7
-77 166 -136 255 -435 651 -1186 1010 -1959 937z"/>
<path d="M4190 2543 c-223 -239 -406 -438 -407 -442 -2 -3 81 -25 184 -49 103
-23 188 -44 190 -46 7 -6 -79 -201 -124 -280 -150 -265 -395 -508 -658 -651
-181 -99 -410 -171 -617 -195 -140 -17 -391 -8 -518 19 -493 101 -898 392
-1152 828 -33 57 -62 103 -64 103 -4 0 -348 -162 -354 -167 -8 -7 77 -166 136
-255 480 -719 1334 -1073 2180 -903 698 140 1280 635 1533 1305 25 65 45 104
53 103 7 -1 93 -21 192 -43 98 -22 182 -39 186 -38 8 3 -341 1148 -350 1148
-3 -1 -187 -197 -410 -437z"/>
</g>
</svg>
