<?xml version="1.0" encoding="UTF-8"?>
<svg version="1.1" xmlns="http://www.w3.org/2000/svg" width="512" height="512">
<path d="M0 0 C4.50645427 0.81296712 9.0164919 1.60557907 13.52611876 2.40072155 C21.09097108 3.73740845 28.65341036 5.08705305 36.21425962 6.44619274 C46.81661572 8.35204771 57.42315671 10.23373195 68.03063273 12.1108489 C76.34367242 13.58289224 84.65550114 15.06175535 92.96718931 16.54140759 C94.2827584 16.77547109 94.2827584 16.77547109 95.62490463 17.01426315 C129.58004011 23.0579447 129.58004011 23.0579447 141.66006041 25.58730602 C142.37839363 25.73770462 143.09672686 25.88810322 143.83682775 26.04305935 C157.83085797 29.07331469 169.8240891 36.4497081 178.17812681 48.27578259 C191.42336389 71.07539029 187.44457228 93.02739272 182.91041148 117.9701761 C182.27751092 121.47490038 181.66584095 124.98334255 181.05132627 128.49132824 C179.84984396 135.33117435 178.62955093 142.16752955 177.40269073 149.00286389 C175.97154294 156.98106646 174.56034776 164.96276057 173.1499959 172.94466095 C170.63220187 187.19067221 168.09782419 201.43368069 165.55337095 215.67495251 C163.08960805 229.46474473 160.63583657 243.25626101 158.19399595 257.04995251 C158.04335539 257.9008922 157.89271482 258.75183189 157.73750939 259.62855763 C157.13184035 263.04999063 156.52618941 266.47142683 155.92057483 269.89286948 C153.44394453 283.88303864 150.95932812 297.87179092 148.4735868 311.86034369 C147.90897118 315.03787635 147.34468809 318.21546778 146.78069234 321.39311051 C145.29938205 329.73837498 143.81550116 338.08316807 142.32397159 346.42661286 C141.70791822 349.87286762 141.09308696 353.31932656 140.48188925 356.76644611 C139.81688385 360.5125081 139.14664079 364.25759669 138.47504759 368.00248241 C138.19049783 369.61529058 138.19049783 369.61529058 137.90019959 371.26068074 C134.42410104 390.52495697 129.16663079 405.97775443 113.44375181 418.44375134 C95.45720672 430.6340543 76.44276203 429.0555831 56.17812681 425.27578259 C53.82103349 424.84405928 51.46341716 424.41563809 49.10488462 423.99184704 C47.65147265 423.72990962 46.19892657 423.46310339 44.74746275 423.19057751 C41.17818177 422.53935407 37.80752838 422.12836008 34.17812681 422.27578259 C33.728244 423.3031654 33.27836119 424.33054821 32.81484556 425.38906384 C26.43903201 439.35939761 17.74582598 450.10909216 3.17812681 456.27578259 C0.36079634 457.24891595 -2.49548176 458.04767852 -5.36874819 458.83828259 C-6.25958101 459.08802334 -7.15041384 459.33776409 -8.0682416 459.59507275 C-23.02640696 463.7603039 -38.03667771 467.74079203 -53.03673983 471.75176144 C-57.54241697 472.95692078 -62.04759368 474.16394811 -66.55283022 475.37075329 C-73.96905381 477.35707184 -81.38560136 479.34217663 -88.80234194 481.32656384 C-98.55675985 483.93651108 -108.31008227 486.55053209 -118.06311083 489.16566563 C-122.9501453 490.47591418 -127.83736033 491.78548898 -132.72460032 493.0949707 C-136.56748617 494.12463411 -140.41030958 495.15452888 -144.2529645 496.18505383 C-147.8382378 497.14649345 -151.4237808 498.10692091 -155.00952578 499.06659985 C-156.91696234 499.57734868 -158.82413588 500.08907949 -160.73129702 500.60085583 C-164.09290686 501.49997254 -167.45643187 502.39112218 -170.82187319 503.27578259 C-172.47228609 503.71074299 -172.47228609 503.71074299 -174.15604067 504.15449047 C-175.2105945 504.42638699 -176.26514833 504.6982835 -177.35165834 504.9784193 C-178.27870577 505.21865826 -179.20575319 505.45889721 -180.16089296 505.70641613 C-184.54645062 506.64478816 -188.85114055 506.76643528 -193.32187319 506.71328259 C-194.68578188 506.70192272 -194.68578188 506.70192272 -196.07724428 506.69033337 C-203.24702734 506.51508622 -209.30248179 505.37516538 -215.82187319 502.27578259 C-216.73839663 501.87488415 -217.65492006 501.47398571 -218.59921694 501.06093884 C-229.62873423 495.72407563 -238.70035199 486.40223059 -243.82187319 475.27578259 C-244.66333528 472.84904165 -245.45670856 470.43740016 -246.2029767 467.98232555 C-246.52586467 466.9332216 -246.52586467 466.9332216 -246.85527563 465.86292362 C-249.19651843 458.17564302 -251.28564475 450.42404887 -253.34921694 442.65859509 C-253.77421031 441.06957653 -254.19951276 439.48064061 -254.62509584 437.8917799 C-255.5324572 434.50178041 -256.43776135 431.11124123 -257.34137392 427.72024059 C-258.79128315 422.27920997 -260.24581896 416.83942243 -261.70102358 411.39980602 C-263.4800531 404.74865105 -265.2580516 398.09722225 -267.03472471 391.44543743 C-270.13265173 379.84761585 -273.23983856 368.25230288 -276.35312319 356.65859509 C-276.57688002 355.82529297 -276.80063684 354.99199085 -277.03117418 354.13343716 C-277.93282098 350.77563525 -278.83450712 347.41784391 -279.73626184 344.06007099 C-287.97133353 313.39508159 -296.18639646 282.72473071 -304.39171648 252.0517683 C-305.11863264 249.33461938 -305.84570393 246.61751201 -306.57281923 243.90041637 C-307.03922216 242.15737513 -307.50562234 240.41433314 -307.97201967 238.6712904 C-308.19954235 237.82113889 -308.42706503 236.97098738 -308.66148233 236.0950737 C-309.77467799 231.93432321 -310.88608681 227.77311031 -311.99362612 223.61085033 C-312.42256699 221.99939061 -312.85156231 220.38794538 -313.28061342 218.77651501 C-313.49012321 217.9896075 -313.69963301 217.20269999 -313.91549158 216.39194679 C-315.19411917 211.59949397 -316.49198258 206.81270287 -317.80497313 202.02955341 C-318.65561705 198.92631257 -319.49796612 195.82085104 -320.33927393 192.71506786 C-320.73109719 191.27721589 -321.12678668 189.84041039 -321.52683878 188.40482616 C-326.60989194 170.15504649 -327.58050417 153.04259487 -318.07187319 136.02578259 C-308.35901715 121.08106394 -294.76759615 113.09287136 -277.76645327 108.67641735 C-276.90382655 108.44581962 -276.04119984 108.21522188 -275.15243292 107.97763634 C-272.30057478 107.21711972 -269.44604412 106.46719072 -266.59140444 105.71718884 C-264.5506235 105.17500787 -262.51002916 104.63212407 -260.46960878 104.08858776 C-254.9938333 102.6317668 -249.51575214 101.18380333 -244.03718615 99.73751736 C-238.35084781 98.23483319 -232.66657868 96.72436896 -226.98227358 95.21401501 C-224.68318739 94.60318539 -222.38409986 93.99236082 -220.08501101 93.38154125 C-218.94351406 93.0782509 -217.80201712 92.77496056 -216.62592936 92.46247959 C-213.1469045 91.53851109 -209.6676059 90.61557953 -206.18825197 89.69285107 C-191.42257971 85.7753667 -176.66821608 81.81802315 -161.92343569 77.82265759 C-160.08233397 77.32420797 -158.24122387 76.82578932 -156.400105 76.32740307 C-149.49834872 74.4585572 -142.59671456 72.58929937 -135.6977582 70.71013927 C-131.76369656 69.63858405 -127.82845186 68.57149114 -123.89227343 67.50773907 C-122.46623607 67.12136061 -121.04068519 66.73318143 -119.61566973 66.34305096 C-117.68947236 65.81582058 -115.76145602 65.29524901 -113.8333478 64.77505016 C-112.76120531 64.48342495 -111.68906282 64.19179974 -110.58443117 63.89133739 C-107.82187319 63.27578259 -107.82187319 63.27578259 -103.82187319 63.27578259 C-103.79609194 62.71375134 -103.77031069 62.15172009 -103.74374819 61.57265759 C-102.52925529 43.57608102 -99.01929809 23.53441272 -85.91952944 10.07656384 C-59.84008645 -12.31193378 -31.12695848 -5.64204179 0 0 Z M-58.00937319 27.96328259 C-69.63390495 37.52123092 -71.39663068 50.28293992 -73.24374819 64.52968884 C-73.09276643 67.47618547 -73.09276643 67.47618547 -70.51327944 69.29531384 C-69.48074038 69.88699352 -68.44820131 70.47867321 -67.38437319 71.08828259 C-49.99748161 81.8808525 -44.33733406 96.55561473 -39.47031069 115.49453259 C-39.24673891 116.36279675 -39.02316713 117.23106091 -38.79282045 118.1256361 C-38.35927145 119.82944992 -37.93502524 121.5356623 -37.5208478 123.24428844 C-37.01370731 125.27052505 -36.42497914 127.27601023 -35.82187319 129.27578259 C-34.83187319 129.77078259 -34.83187319 129.77078259 -33.82187319 130.27578259 C-31.93222557 129.4120279 -30.08346647 128.45803078 -28.25937319 127.46328259 C-16.15109033 121.26533732 -3.81805262 120.57857761 9.33047056 124.30312634 C16.01084247 126.58489946 21.27265309 129.21961998 26.24062681 134.27578259 C28.07391053 136.12983434 28.07391053 136.12983434 30.17812681 137.27578259 C32.78551156 137.06508483 34.64058748 136.38110264 37.00234556 135.27578259 C46.06886606 131.10876419 60.36728865 131.97529161 69.67812681 134.83828259 C83.8647829 140.49310354 92.40830208 149.13036729 98.73281431 162.81484509 C104.94595552 177.69279944 102.23300241 193.11961349 96.49062681 207.77578259 C82.81939914 241.0172309 54.66072831 266.11940189 25.11562681 285.33828259 C24.43798277 285.77914196 23.76033873 286.22000134 23.06216002 286.67422009 C18.57038991 289.53407815 13.97358771 291.96091685 9.17812681 294.27578259 C11.86770317 305.99247941 14.79573099 317.62583568 17.90859556 329.23672009 C18.34908007 330.88670339 18.78936841 332.53673907 19.22947264 334.18682384 C20.1414111 337.60393181 21.05496416 341.02060206 21.96987486 344.4369154 C23.14238805 348.81525099 24.3118247 353.19440097 25.48021555 357.57383823 C26.38445492 360.96259382 27.2897222 364.35107406 28.19536352 367.73945522 C28.62734691 369.35575488 29.05914049 370.97210527 29.49073935 372.58850765 C30.09024158 374.83267002 30.69099369 377.07649386 31.29214048 379.32021618 C31.80365911 381.23186062 31.80365911 381.23186062 32.32551146 383.18212414 C32.889587 385.22883494 33.50676951 387.26171067 34.17812681 389.27578259 C36.8772748 390.10268172 39.4205559 390.74086916 42.17812681 391.27578259 C43.46066343 391.53246716 44.74320005 391.78915173 46.06460142 392.05361462 C47.4026314 392.30018179 48.74128176 392.54340149 50.08047056 392.78359509 C50.80247145 392.91394146 51.52447233 393.04428783 52.26835203 393.1785841 C53.78316591 393.45064926 55.29826152 393.72115014 56.81362486 393.99013805 C59.10779028 394.39938466 61.39972057 394.81986786 63.69179869 395.24062634 C75.72649699 397.41031115 85.14177871 398.91847995 95.93593931 392.17812634 C102.84354308 387.05816877 104.77205836 379.11316121 106.19837523 371.06103039 C106.44371949 369.75823826 106.44371949 369.75823826 106.69402021 368.4291271 C107.20156399 365.71352497 107.69139553 362.99518433 108.17812681 360.27578259 C108.48216219 358.6118932 108.78650214 356.94805944 109.09116888 355.28428555 C110.03356052 350.09718552 110.94462861 344.90476369 111.8541522 339.71181774 C112.20122147 337.74048931 112.54849766 335.76919731 112.89596128 333.79793835 C113.83030664 328.49383599 114.76182638 323.189241 115.69283175 317.88455153 C116.68288541 312.24653774 117.67570503 306.60901102 118.66822386 300.97143078 C120.55510694 290.25149163 122.43970625 279.53115238 124.32339853 268.81065214 C125.80145701 260.39898934 127.28033446 251.98747095 128.75991392 243.57607555 C129.06977025 241.81453966 129.06977025 241.81453966 129.38588631 240.01741719 C130.4209914 234.1331458 131.45628608 228.24890782 132.4917922 222.36470699 C132.90159838 220.03589292 133.31139671 217.70707746 133.72118711 215.37826061 C133.92277319 214.23266289 134.12435927 213.08706516 134.33205402 211.90675235 C135.5403593 205.03865425 136.74684963 198.17024016 137.95185888 191.30156302 C144.90476448 151.67096992 144.90476448 151.67096992 148.39394867 132.52514386 C148.80614675 130.26130542 149.21684887 127.99720141 149.62693644 125.73297977 C149.75664861 125.01695375 149.88636078 124.30092772 150.02000362 123.56320393 C150.27320966 122.16537545 150.52635909 120.76753671 150.77944773 119.36968696 C151.58386203 114.93404809 152.40569321 110.50184703 153.23136473 106.07012463 C157.71871661 86.58017006 157.71871661 86.58017006 153.37734556 67.88125134 C146.24544536 58.33333283 138.7724993 56.40878307 127.49819517 54.41567516 C126.11648499 54.16139569 124.73498073 53.90599513 123.3536706 53.64955139 C119.69887865 52.97519789 116.04107913 52.31897439 112.38198566 51.66841078 C110.23372402 51.2856875 108.0862029 50.89908264 105.93891859 50.51091671 C96.43552354 48.79362351 86.92550194 47.11542445 77.41286159 45.45019412 C73.37255446 44.74241527 69.33274581 44.0318008 65.29285765 43.32163525 C58.54441165 42.1357736 51.79559609 40.95203484 45.04653502 39.76967907 C37.26741446 38.40684403 29.48889222 37.04063383 21.71067053 35.67267865 C14.15843142 34.34453651 6.60580297 33.01862158 -0.94701242 31.69376087 C-4.13631891 31.13428343 -7.32549265 30.57405813 -10.51455927 30.01321507 C-14.25495517 29.35552451 -17.99569066 28.69980002 -21.73669291 28.04556751 C-23.10253923 27.80639123 -24.46827074 27.56655817 -25.83387423 27.32599926 C-42.2562807 23.84818037 -42.2562807 23.84818037 -58.00937319 27.96328259 Z M-109.66562319 95.75625134 C-110.71472368 96.03601315 -111.76382418 96.31577496 -112.8447156 96.6040144 C-116.34169175 97.54090367 -119.83151438 98.50205962 -123.32187319 99.46328259 C-125.82268163 100.13847674 -128.32391415 100.81210188 -130.8255353 101.48427868 C-136.25157785 102.94459165 -141.67417139 104.41717112 -147.09482241 105.89736462 C-155.38974085 108.16191732 -163.69131571 110.40137981 -171.99434137 112.63599873 C-182.28980216 115.4068482 -192.58432349 118.18105711 -202.87387514 120.97378063 C-203.6490445 121.18417005 -204.42421387 121.39455946 -205.22287321 121.61132431 C-208.30954342 122.44916862 -211.39619378 123.28708598 -214.48282099 124.12508869 C-224.63231174 126.87978889 -234.78927493 129.60376741 -244.95468569 132.29922009 C-248.27744031 133.18412924 -251.59998231 134.0698313 -254.92242861 134.95589733 C-256.95267943 135.4951272 -258.98384889 136.03091221 -261.0159955 136.562953 C-263.75968354 137.28141026 -266.49998523 138.01162407 -269.23984194 138.74453259 C-270.01848604 138.94468975 -270.79713015 139.14484692 -271.59936953 139.35106945 C-278.28809452 141.16233769 -284.06171647 143.80533963 -288.63437319 149.21328259 C-289.47935366 150.18588024 -289.47935366 150.18588024 -290.34140444 151.17812634 C-294.75537579 157.43222295 -294.53329635 163.90233229 -293.82187319 171.27578259 C-292.55663196 178.20371033 -290.56655925 184.97544532 -288.68906069 191.75625134 C-288.14284938 193.77594247 -287.59811697 195.79603406 -287.05475283 197.81649303 C-285.59170833 203.24125488 -284.10903536 208.66047233 -282.62282228 214.07892513 C-281.06142445 219.785857 -279.51905119 225.49792359 -277.9751935 231.20962048 C-275.46270727 240.49763 -272.94100546 249.78308494 -270.4126935 259.06679821 C-267.22925165 270.75985392 -264.07413752 282.4602991 -260.93906069 294.16640759 C-260.71215422 295.01357468 -260.48524775 295.86074177 -260.25146532 296.73358059 C-259.35161036 300.09371757 -258.45197419 303.45391296 -257.55275965 306.81422138 C-256.01429681 312.56308163 -254.47257294 318.31105915 -252.92880678 324.05849743 C-248.39148156 340.95206509 -243.86471048 357.84839815 -239.35374117 374.74902439 C-238.56006753 377.72241146 -237.76617108 380.69573895 -236.97220278 383.66904736 C-236.44845624 385.63048736 -235.92471355 387.5919284 -235.40097475 389.55337048 C-235.14350843 390.5175908 -234.88604212 391.48181112 -234.62077379 392.47525024 C-233.36052302 397.19557526 -232.10103342 401.91610094 -230.84323549 406.63708019 C-228.4060175 415.78384923 -225.96184628 424.92858174 -223.49148607 434.06646347 C-222.3209215 438.4018212 -221.17676795 442.74315608 -220.04843569 447.08974743 C-219.54660373 448.96837184 -219.04408079 450.84681193 -218.54062319 452.72500134 C-218.34480654 453.51010586 -218.14898989 454.29521038 -217.9472394 455.10410595 C-215.88027062 462.64406559 -211.35813487 468.91827479 -204.82187319 473.27578259 C-193.86262459 478.43544694 -181.56049618 474.35833136 -170.52499819 471.30703259 C-168.92549116 470.87783985 -167.3255944 470.4500974 -165.72534609 470.02367687 C-161.40294773 468.86754369 -157.08618986 467.69154178 -152.77026033 466.51152325 C-148.22031318 465.27093732 -143.66563964 464.04794988 -139.11142397 462.82314587 C-132.37690516 461.01008834 -125.64427724 459.1902421 -118.91361094 457.36293507 C-106.60835374 454.02240428 -94.29222592 450.72392931 -81.97148561 447.44101238 C-75.8506998 445.80917215 -69.73127625 444.17223371 -63.61194277 442.53495693 C-58.67691183 441.21459198 -53.74146483 439.89584244 -48.80490541 438.58120251 C-44.15175864 437.34149861 -39.50069236 436.09426101 -34.85105944 434.84144497 C-33.14442481 434.38287909 -31.43710869 433.92684056 -29.72905779 433.47357845 C-11.3789462 429.17866673 -11.3789462 429.17866673 2.49843931 417.31093884 C8.81310875 405.10110596 3.82869095 391.62686055 0.40468931 379.29531384 C-0.10791624 377.4054613 -0.6191346 375.51523204 -1.12907839 373.62465954 C-2.22592654 369.56938417 -3.33209019 365.51681287 -4.44574404 361.46612072 C-6.2271017 354.98637816 -7.9876148 348.50108366 -9.74496889 342.01479626 C-11.89255396 334.09322422 -14.04485462 326.17296463 -16.20337057 318.25436401 C-21.39041861 299.22276604 -26.49792528 280.17013008 -31.59457254 261.11415958 C-33.46958937 254.10363324 -35.34787173 247.09398872 -37.22812319 240.08486462 C-42.37061301 220.91285839 -47.50205447 201.73798912 -52.60970163 182.55666828 C-54.20697162 176.55948823 -55.80599932 170.56277647 -57.40488386 164.56602669 C-58.907603 158.92873411 -60.40697676 153.29056579 -61.90374517 147.65169048 C-62.82279989 144.19230444 -63.74492809 140.73374297 -64.66786051 137.27538967 C-65.09008788 135.69064029 -65.51103075 134.10554796 -65.93052149 132.52007198 C-70.25411645 112.38574254 -70.25411645 112.38574254 -82.70077944 96.93593884 C-91.46949093 91.95814504 -100.35956911 93.14184133 -109.66562319 95.75625134 Z M-18.57187319 157.65078259 C-22.367613 162.07914569 -24.1556996 164.79477746 -24.05395937 170.77047253 C-23.55594863 176.14636918 -22.06240919 181.33659905 -20.70859194 186.54922009 C-20.37954363 187.82697308 -20.05049532 189.10472607 -19.71147585 190.42119884 C-19.0119935 193.12461357 -18.30347997 195.82549409 -17.59018373 198.5252943 C-16.87109201 201.25340649 -16.17062963 203.9851885 -15.48764467 206.72255993 C-11.42022514 223.00307981 -6.89595029 237.58729874 3.17812681 251.27578259 C4.1226462 252.59818575 5.06581104 253.92155767 6.00747252 255.24599743 C6.72378843 256.24582653 7.44010435 257.24565563 8.17812681 258.27578259 C11.16254257 257.58872682 13.11896162 256.82226756 15.57656431 254.97500134 C16.21368345 254.49877331 16.85080259 254.02254528 17.50722837 253.5318861 C18.18237486 253.01424694 18.85752134 252.49660778 19.55312681 251.96328259 C20.2592108 251.42566296 20.96529478 250.88804333 21.69277525 250.33413219 C43.84393692 233.31404458 66.21560224 212.83772954 72.17812681 184.27578259 C72.45653487 178.32713038 71.07876245 172.84542259 67.17812681 168.27578259 C63.06889668 164.44760829 59.22061474 162.94425736 53.61562681 162.71328259 C45.34185628 163.14634495 40.84675462 167.30328421 34.97500181 172.78750134 C31.35056311 175.78948209 27.69562357 175.6460692 23.17812681 175.27578259 C19.93503637 174.56217526 17.6806157 173.47599064 15.17812681 171.27578259 C13.21548524 168.05114138 11.56448024 164.73564386 9.88125181 161.35781384 C7.63871643 157.29964775 5.53638192 154.91777048 1.17812681 153.27578259 C-6.61725193 151.31119602 -12.35393383 152.28074405 -18.57187319 157.65078259 Z " fill="#ffffff" transform="translate(324.8218731880188,5.724217414855957)"/>
<path d="M0 0 C2.94740229 2.03213509 5.47199461 4.42850326 8.03466797 6.91796875 C11.98549438 10.66447143 15.96164919 14.2696229 20.22216797 17.66796875 C25.24389022 21.69558004 29.91049558 26.02392731 34.59301758 30.43334961 C38.05545641 33.67610136 41.57762773 36.76483656 45.28466797 39.73046875 C50.28447532 43.73031463 54.92449935 48.03481622 59.58007812 52.42260742 C63.16422562 55.78145156 66.82482542 58.96765873 70.65966797 62.04296875 C85.19669074 73.72412146 85.19669074 73.72412146 86.07803345 80.47886658 C86.09331676 86.68220531 85.05575499 91.78065305 82.99560547 97.609375 C82.70053604 98.48321335 82.40546661 99.3570517 82.10145569 100.25737 C81.1351386 103.10766741 80.14766794 105.95012265 79.15966797 108.79296875 C78.47870672 110.78762382 77.79912019 112.78274869 77.12084961 114.77832031 C75.72014855 118.89111685 74.31067089 123.00074119 72.89355469 127.10791016 C70.8717157 132.96949156 68.87384303 138.83899677 66.88232422 144.7109375 C63.79530897 153.80222344 60.70220962 162.8912572 57.56561279 171.96557617 C57.03223897 173.51246448 56.50129992 175.0601939 55.97247314 176.60864258 C55.17690667 178.93757674 54.37410682 181.26390752 53.56982422 183.58984375 C53.3335582 184.28668274 53.09729218 184.98352173 52.85386658 185.70147705 C49.26673855 196.00018245 49.26673855 196.00018245 44.03466797 198.54296875 C39.56448881 200.54149776 35.67958075 201.33137804 30.93896484 199.52856445 C25.74755724 197.02126126 21.88241284 193.94096686 17.78466797 189.91796875 C16.55618847 188.74537341 15.327028 187.57349105 14.09716797 186.40234375 C13.51966797 185.84740234 12.94216797 185.29246094 12.34716797 184.72070312 C8.24390781 180.80721875 3.8909403 177.17366092 -0.42236328 173.49609375 C-6.96890883 167.90946808 -13.43437985 162.26616299 -19.78173828 156.453125 C-24.22805028 152.39220762 -28.77379917 148.45196003 -33.36376953 144.5546875 C-39.47231463 139.36238131 -45.53468619 134.12584265 -51.46533203 128.73046875 C-52.01406982 128.23844971 -52.56280762 127.74643066 -53.12817383 127.23950195 C-56.60925795 124.04092141 -58.89589847 121.60052028 -59.5369873 116.84393311 C-59.61520531 109.47385042 -58.09376592 103.46401676 -55.62158203 96.55859375 C-55.0536644 94.9068364 -55.0536644 94.9068364 -54.47427368 93.22171021 C-53.23725517 89.63553253 -51.97681825 86.0581049 -50.71533203 82.48046875 C-49.85034517 79.99223503 -48.98691828 77.50345849 -48.125 75.01416016 C-46.80378141 71.19954249 -45.48104035 67.38549312 -44.15011597 63.57424927 C-41.21824343 55.17289572 -38.36585528 46.74743981 -35.56689453 38.30078125 C-34.84513929 36.1337058 -34.12314003 33.96671159 -33.40087891 31.79980469 C-32.37662615 28.72668688 -31.35580442 25.65270194 -30.34741211 22.57434082 C-29.42238275 19.75495325 -28.48091422 16.94156063 -27.53564453 14.12890625 C-27.27175934 13.30955597 -27.00787415 12.49020569 -26.73599243 11.64602661 C-24.77395247 5.88167221 -22.34301304 1.14182937 -16.96533203 -2.14453125 C-10.47194861 -3.62030021 -5.83166546 -3.53567248 0 0 Z M-3.21533203 40.23046875 C-6.31328241 48.9999245 -9.38362678 57.77841347 -12.41906357 66.56970501 C-13.82939084 70.65151988 -15.24904129 74.7295764 -16.69042969 78.80053711 C-18.08088577 82.72875056 -19.44627922 86.66485897 -20.79465485 90.60770607 C-21.31368182 92.11110782 -21.8416966 93.61143736 -22.37874603 95.10849571 C-23.12917341 97.20514208 -23.84698724 99.31040876 -24.55810547 101.4206543 C-25.18431793 103.21601875 -25.18431793 103.21601875 -25.82318115 105.0476532 C-26.56616958 108.32385581 -26.56616958 108.32385581 -24.46295166 111.03108215 C-22.18060904 113.2644466 -19.8606804 115.26934661 -17.34033203 117.23046875 C-12.77305845 120.88428761 -8.46902286 124.71742127 -4.21533203 128.73046875 C0.66161401 133.32394807 5.66317587 137.63405877 10.89794922 141.8203125 C16.74930695 146.70568154 22.24473774 151.99786311 27.78466797 157.23046875 C30.4406877 155.90245889 30.45086534 154.86751465 31.38525391 152.08813477 C31.68606873 151.2053334 31.98688354 150.32253204 32.29681396 149.41297913 C32.61764954 148.44653976 32.93848511 147.4801004 33.26904297 146.484375 C33.60711975 145.48526596 33.94519653 144.48615692 34.29351807 143.45677185 C35.38087173 140.23780549 36.45785322 137.01547402 37.53466797 133.79296875 C38.24493308 131.68532016 38.95586317 129.57789555 39.66748047 127.47070312 C41.05970599 123.34548466 42.44197928 119.21711818 43.81787109 115.08642578 C45.07141588 111.3307976 46.35480027 107.58826708 47.67333984 103.85498047 C47.96017639 103.0312645 48.24701294 102.20754852 48.5425415 101.35887146 C49.07160075 99.84244688 49.60980386 98.32916679 50.15911865 96.81996155 C51.50292585 92.93236045 52.21865603 90.1603137 50.78466797 86.23046875 C48.55631918 83.69804129 48.55631918 83.69804129 45.72216797 81.35546875 C45.22048096 80.9176709 44.71879395 80.47987305 44.2019043 80.02880859 C42.73752199 78.75341661 41.26133239 77.49161999 39.78466797 76.23046875 C38.51287253 75.10655651 37.2419227 73.98168599 35.97216797 72.85546875 C33.52896589 70.72703504 31.06896275 68.61921802 28.60107422 66.51953125 C22.76691613 61.55083552 16.97799089 56.55460123 11.34716797 51.35546875 C4.79709629 44.1749159 4.79709629 44.1749159 -3.21533203 40.23046875 Z " fill="#ffffff" transform="translate(167.21533203125,191.76953125)"/>
</svg>
