<svg width="24" height="24" viewBox="0 0 24 24" fill="none" xmlns="http://www.w3.org/2000/svg">
<path d="M20 12C20 16.4 16.4 20 12 20C7.6 20 4 16.4 4 12C4 7.6 7.6 4 12 4C16.4 4 20 7.6 20 12ZM12 2C6.5 2 2 6.5 2 12C2 17.5 6.5 22 12 22C17.5 22 22 17.5 22 12C22 6.5 17.5 2 12 2Z" fill="#e11d48"/>
<path d="M21.1482 12.0001C21.1482 12.5792 20.6788 13.0486 20.0997 13.0486C19.5207 13.0486 19.0513 12.5792 19.0513 12.0001C19.0513 11.4211 19.5207 10.9517 20.0997 10.9517C20.6788 10.9517 21.1482 11.4211 21.1482 12.0001Z" fill="#e11d48"/>
<path d="M4.95215 12C4.95215 12.579 4.48274 13.0485 3.90369 13.0485C3.32464 13.0485 2.85522 12.579 2.85522 12C2.85522 11.421 3.32464 10.9515 3.90369 10.9515C4.48274 10.9515 4.95215 11.421 4.95215 12Z" fill="#e11d48"/>
<path d="M13.0488 20.2977C13.0488 20.8768 12.5794 21.3462 12.0004 21.3462C11.4213 21.3462 10.9519 20.8768 10.9519 20.2977C10.9519 19.7187 11.4213 19.2493 12.0004 19.2493C12.5794 19.2493 13.0488 19.7187 13.0488 20.2977Z" fill="#e11d48"/>
<path d="M13.0488 3.67004C13.0488 4.24909 12.5794 4.71851 12.0004 4.71851C11.4213 4.71851 10.9519 4.24909 10.9519 3.67004C10.9519 3.09099 11.4213 2.62158 12.0004 2.62158C12.5794 2.62158 13.0488 3.09099 13.0488 3.67004Z" fill="#e11d48"/>
<path d="M18.9419 6.3009C18.9419 6.87995 18.4725 7.34937 17.8934 7.34937C17.3144 7.34937 16.845 6.87995 16.845 6.3009C16.845 5.72185 17.3144 5.25244 17.8934 5.25244C18.4725 5.25244 18.9419 5.72185 18.9419 6.3009Z" fill="#e11d48"/>
<path d="M7.27271 6.12305C7.27271 6.7021 6.80329 7.17151 6.22424 7.17151C5.64519 7.17151 5.17578 6.7021 5.17578 6.12305C5.17578 5.544 5.64519 5.07458 6.22424 5.07458C6.80329 5.07458 7.27271 5.544 7.27271 6.12305Z" fill="#e11d48"/>
<path d="M7.2417 17.8C7.2417 18.3791 6.77229 18.8485 6.19324 18.8485C5.61419 18.8485 5.14478 18.3791 5.14478 17.8C5.14478 17.221 5.61419 16.7516 6.19324 16.7516C6.77229 16.7516 7.2417 17.221 7.2417 17.8Z" fill="#e11d48"/>
<path d="M19.0486 17.3256C19.0486 17.9046 18.5792 18.374 18.0001 18.374C17.4211 18.374 16.9517 17.9046 16.9517 17.3256C16.9517 16.7465 17.4211 16.2771 18.0001 16.2771C18.5792 16.2771 19.0486 16.7465 19.0486 17.3256Z" fill="#e11d48"/>
<path d="M11.9397 14.6716C11.8448 14.9322 11.7433 15.1905 11.659 15.455C11.636 15.5263 11.6436 15.6265 11.6778 15.6943C11.953 16.2365 11.857 16.8996 11.4304 17.3325C11.0083 17.7611 10.3682 17.8565 9.80221 17.5745C9.28409 17.3165 8.97385 16.7291 9.06278 16.1387C9.13482 15.6601 9.40585 15.319 9.83653 15.0942C9.91387 15.0537 9.99242 14.9731 10.0231 14.8928C10.2233 14.3694 10.4084 13.8405 10.6049 13.315C10.6435 13.211 10.619 13.143 10.566 13.047C10.4343 12.8109 10.3364 12.5576 10.215 12.3156C10.1808 12.2478 10.1248 12.1662 10.0592 12.1416C9.5633 11.9515 9.06436 11.7699 8.56257 11.5961C8.49232 11.572 8.39194 11.5856 8.32275 11.618C7.78516 11.8703 7.14 11.7668 6.71843 11.3522C6.27264 10.9139 6.17296 10.2969 6.45453 9.72192C6.697 9.22572 7.28606 8.91396 7.86453 9.00201C8.3689 9.07858 8.75523 9.34022 8.96615 9.81548C9.01381 9.92212 9.07889 9.9768 9.1851 10.0147C9.66375 10.1845 10.1414 10.3569 10.6163 10.5371C10.729 10.5796 10.8008 10.5504 10.9013 10.4955C11.1326 10.3679 11.3761 10.2602 11.6234 10.1664C11.7194 10.1298 11.7796 10.0956 11.8141 9.99677C11.9833 9.51745 12.1561 9.03868 12.3365 8.56344C12.3874 8.42992 12.3809 8.32058 12.3253 8.18669C12.1018 7.6478 12.1877 7.14554 12.582 6.72378C12.9686 6.30662 13.4602 6.17264 14.0139 6.3491C14.5784 6.52874 14.915 6.91689 14.9881 7.50436C15.0649 8.11895 14.7036 8.71213 14.1337 8.95485C14.0639 8.98479 13.9898 9.05523 13.9634 9.12383C13.7776 9.60967 13.5991 10.0981 13.4306 10.5896C13.408 10.6559 13.4338 10.7508 13.4642 10.8209C13.5749 11.0738 13.7085 11.3172 13.8096 11.5739C13.848 11.6713 13.8873 11.7269 13.9852 11.7611C14.4691 11.9328 14.9528 12.1073 15.4331 12.2888C15.5465 12.3316 15.6362 12.3229 15.7454 12.2726C16.241 12.0434 16.7228 12.0919 17.1681 12.4045C17.5997 12.7077 17.7871 13.133 17.7352 13.6543C17.672 14.2888 17.2095 14.7854 16.5955 14.8851C15.9735 14.9864 15.3558 14.6619 15.089 14.0822C15.0404 13.976 14.9754 13.9213 14.8698 13.8836C14.3859 13.7119 13.9032 13.537 13.4217 13.3565C13.3135 13.3157 13.2401 13.3311 13.1373 13.3903C12.9086 13.5211 12.6644 13.6307 12.4165 13.722C12.3115 13.7605 12.2525 13.8018 12.217 13.9055C12.13 14.1631 12.0324 14.4168 11.9397 14.6716Z" fill="#e11d48"/>
</svg>
